<svg width="45" height="40" viewBox="0 0 45 40" fill="none" xmlns="http://www.w3.org/2000/svg">
<path d="M42.6651 22.2352C41.2587 22.1417 39.8283 21.9939 38.413 22.3869C38.0087 21.0436 37.2998 19.8748 36.184 18.9713C35.7064 18.5847 35.1984 18.3673 34.5464 18.3711C32.7179 18.3799 30.8895 18.3837 29.0598 18.3863C29.0257 18.2511 28.9536 18.0716 28.8349 17.8328C28.2283 16.6147 27.2743 13.2396 26.1914 12.4081C25.763 12.0783 25.3031 11.9305 24.7496 11.9317C20.0363 11.9469 15.3231 11.957 10.6111 11.9254C9.82258 11.9204 9.21605 12.1744 8.64743 12.671C7.61885 13.5694 6.96556 14.6978 6.58016 15.9526C6.25541 15.8767 5.95847 15.7529 5.65646 15.7453C4.67969 15.7188 3.70166 15.7264 2.72489 15.7377C1.44738 15.7542 0.445338 16.6956 0.372048 17.9301C0.294968 19.2253 1.14159 20.2766 2.41404 20.4674C2.87652 20.5369 3.339 20.6127 3.86719 20.6961C3.7383 20.8895 3.64101 21.0449 3.53486 21.1953C3.11914 21.7765 2.89421 22.4197 2.89548 23.14C2.898 24.4187 2.8702 25.6988 2.91064 26.9775C2.9258 27.4388 2.98014 27.9834 3.23286 28.3321C3.71809 29.0006 3.6865 29.7082 3.67765 30.4436C3.67386 30.7747 3.67386 31.107 3.67765 31.4381C3.68902 32.6941 4.53311 33.5395 5.7942 33.5471C7.08687 33.5534 8.37954 33.5521 9.67221 33.5471C10.8145 33.542 11.5967 32.8584 11.7812 31.7173C11.8886 31.0413 11.9202 30.5662 11.8987 30.2288C12.1716 30.2288 12.4281 30.2288 12.6619 30.2288C12.6859 30.2288 12.7099 30.2288 12.7339 30.2263C12.7339 31.2738 12.7137 32.3214 12.7491 33.3676C12.7655 33.844 12.8173 34.4 13.0701 34.7715C13.5376 35.4589 13.5351 36.1754 13.5174 36.9285C13.5098 37.2444 13.5136 37.5603 13.5161 37.8762C13.5275 39.1347 14.3678 39.9851 15.6238 39.9927C16.9317 40.0003 18.2407 39.999 19.5486 39.9927C21.2709 40.0003 21.4971 38.0354 21.6323 36.8463C21.6411 36.7693 21.6437 36.6947 21.6411 36.6239H33.2006C33.2006 36.6239 33.2006 36.6341 33.2006 36.6391C33.2082 37.794 33.3712 39.999 35.2692 39.9915C36.6086 40.0016 37.9493 40.0041 39.2887 39.9915C40.4575 39.9801 41.3079 39.1183 41.3244 37.9482C41.3332 37.3164 41.2991 36.6833 41.337 36.0541C41.3547 35.7596 41.495 35.4728 41.5796 35.1834C41.7553 34.587 42.0446 33.9969 42.0825 33.3916C42.1609 32.1331 42.104 30.8669 42.1065 29.6033C42.1078 28.8843 41.8892 28.2399 41.476 27.6561C41.3648 27.4994 41.2625 27.3377 41.131 27.1418C41.7022 27.0546 42.1861 26.9914 42.6651 26.9043C43.844 26.6907 44.6413 25.7228 44.6325 24.535C44.6236 23.3661 43.8301 22.3174 42.6638 22.2403L42.6651 22.2352ZM35.2312 20.1642C36.2421 20.9564 36.7981 22.033 37.0723 23.2714C37.1355 23.5595 37.2189 23.8425 37.3137 24.2052C36.6591 24.8105 35.9047 25.206 34.9356 25.2022C29.9253 25.1857 24.9151 25.1857 19.9049 25.2022C18.9357 25.206 18.1826 24.8079 17.5255 24.2039C17.6127 23.8691 17.6999 23.5721 17.7669 23.2701C18.0424 22.0318 18.5933 20.9527 19.6105 20.1667C19.8038 20.0176 20.0869 19.9102 20.3295 19.9102C25.0567 19.895 29.7826 19.895 34.5097 19.9102C34.7523 19.9102 35.0379 20.0138 35.23 20.1642H35.2312ZM7.9297 16.8295C8.19885 15.6063 8.74093 14.5373 9.73666 13.7539C9.95021 13.5858 10.2699 13.4696 10.5403 13.4683C15.2372 13.4519 19.9353 13.4519 24.6321 13.4683C24.9038 13.4683 25.2209 13.5871 25.437 13.7551C26.2179 14.3604 27.0797 17.4183 27.4209 18.3382C27.4272 18.3559 27.4348 18.3724 27.4411 18.3888C25.0339 18.3888 22.6267 18.3837 20.2196 18.3774C19.7394 18.3762 19.3363 18.4987 18.9547 18.7565C18.918 18.754 18.8814 18.7527 18.8422 18.7527C17.0138 18.7514 11.9 18.7325 10.0715 18.7603C9.10106 18.7742 8.34795 18.3673 7.68961 17.762C7.78312 17.4019 7.86778 17.1189 7.93096 16.8295H7.9297ZM10.2889 31.4406C10.2358 31.7628 10.1157 32.0269 9.73413 32.0282C8.39471 32.032 7.05402 32.0459 5.71585 32.008C5.53895 32.0029 5.24579 31.7426 5.22052 31.5695C5.15102 31.0994 5.19651 30.6117 5.19651 30.1265C5.57054 30.1631 5.88265 30.22 6.19602 30.2212C7.34212 30.2276 9.04167 30.2276 10.5631 30.2263C10.4291 30.6622 10.3369 31.1563 10.2901 31.4394L10.2889 31.4406ZM12.854 28.7226C12.7908 28.715 12.7238 28.7112 12.6531 28.7112C10.951 28.7087 7.9853 28.715 6.28195 28.7087C5.1447 28.7049 4.42697 27.9884 4.41054 26.8474C4.4017 26.184 4.44972 25.5181 4.39917 24.8585C4.28924 23.4255 4.48636 22.1291 5.50483 20.9918C6.07725 20.3537 5.66405 19.4818 4.80732 19.315C4.11233 19.1798 3.4085 19.0901 2.70973 18.9701C2.1272 18.8702 1.83531 18.524 1.88459 18.0173C1.93134 17.5371 2.27631 17.2553 2.8462 17.2515C3.57151 17.2452 4.29682 17.2692 5.02087 17.2414C5.36583 17.2275 5.53642 17.3463 5.71459 17.6471C6.60923 19.1609 7.89558 20.173 9.6899 20.2488C11.2757 20.3158 15.0362 20.288 17.4384 20.2728C17.0643 20.8036 16.7686 21.3899 16.5425 22.0267C16.4932 22.167 16.4363 22.3035 16.406 22.3831C16.0711 22.3072 15.7881 22.1935 15.5012 22.1872C14.5093 22.1645 13.5149 22.1657 12.5229 22.1821C11.2757 22.2036 10.2863 23.1501 10.2092 24.3657C10.1284 25.6596 10.975 26.7172 12.2437 26.9093C12.7087 26.9801 13.1724 27.0546 13.7271 27.1418C13.3278 27.6574 13.0157 28.1666 12.8527 28.7226H12.854ZM20.1261 36.6277C20.0679 36.9752 19.9214 38.4789 19.5183 38.4764C18.2104 38.4713 16.9013 38.4903 15.5935 38.4562C15.4052 38.4511 15.0868 38.2174 15.0628 38.0556C14.992 37.5717 15.0375 37.07 15.0375 36.6214H20.1261C20.1261 36.6214 20.1261 36.6265 20.1248 36.6277H20.1261ZM39.8106 37.8042C39.803 38.3121 39.6412 38.4726 39.1206 38.4739C37.9227 38.4777 36.7248 38.4764 35.5269 38.4739C34.9267 38.4739 34.8155 37.2861 34.722 36.6202H39.8118C39.8118 36.9879 39.8169 37.396 39.8118 37.8029L39.8106 37.8042ZM42.3188 25.4094C41.6213 25.5294 40.9175 25.6204 40.2212 25.7531C39.3114 25.9275 38.9286 26.7905 39.5326 27.4918C40.4323 28.5368 40.7242 29.6968 40.6054 31.035C40.5422 31.7553 40.5978 32.4869 40.5927 33.2135C40.5826 34.4493 39.8826 35.1518 38.6544 35.1531C34.904 35.1556 31.1523 35.1531 27.4019 35.1531C23.6831 35.1531 19.9631 35.1531 16.2442 35.1531C14.9427 35.1531 14.2515 34.472 14.2465 33.1793C14.2414 32.0737 14.2591 30.968 14.2402 29.8636C14.2301 29.2836 14.3792 28.7795 14.738 28.3246C14.9629 28.0402 15.1727 27.7433 15.3686 27.4375C15.8222 26.7261 15.5 25.9262 14.6774 25.7645C13.9521 25.6217 13.2166 25.5307 12.4875 25.4031C11.9695 25.3134 11.6927 24.9709 11.7218 24.492C11.7509 24.0207 12.0882 23.7035 12.6051 23.696C13.3923 23.6846 14.1808 23.7048 14.9693 23.6858C15.2473 23.6783 15.3799 23.7844 15.5126 24.0207C16.3024 25.4322 17.4801 26.3356 19.0747 26.6604C19.2883 26.7033 19.5119 26.7071 19.7318 26.7084C24.7597 26.7109 29.7864 26.6983 34.8143 26.716C36.8487 26.7236 38.2829 25.7531 39.2988 24.0725C39.4707 23.7895 39.6299 23.6757 39.9546 23.6858C40.6951 23.7086 41.4356 23.6884 42.176 23.6947C42.7358 23.6997 43.0833 23.9967 43.12 24.4794C43.1579 24.9709 42.871 25.3134 42.3214 25.4081L42.3188 25.4094Z" fill="#282525"/>
<path d="M26.2277 10.6075C26.6801 10.6428 27.0036 10.3118 27.0453 9.76843C27.1135 8.88643 27.1767 8.00443 27.2462 7.1237C27.3043 6.39839 27.3688 5.67307 27.4395 4.82519C28.1067 5.88536 28.6994 6.8318 29.297 7.77572C29.7532 8.49598 30.2549 8.53515 30.7944 7.88818C31.8862 6.58035 32.9742 5.26746 34.0646 3.95836C34.1607 3.84337 34.2668 3.73596 34.4349 3.55274C34.4096 3.78398 34.4033 3.90907 34.3805 4.03038C34.0899 5.62885 33.7955 7.22605 33.5049 8.82452C33.4088 9.35397 33.6451 9.78107 34.1026 9.82909C34.3262 9.85183 34.5701 9.7836 34.7912 9.7141C36.2899 9.2453 37.786 8.76386 39.2821 8.28748C39.2985 8.31528 39.3149 8.34182 39.3314 8.36962C39.2265 8.48334 39.1203 8.59707 39.0155 8.70953C38.0905 9.70272 37.1617 10.6921 36.2418 11.6891C35.749 12.2236 35.8413 12.7329 36.487 13.0627C37.1453 13.4 37.8112 13.7235 38.4734 14.0546C38.7868 14.2113 39.0963 14.3743 39.5133 14.5891C39.2821 14.6409 39.1785 14.67 39.0736 14.6877C37.7695 14.9075 36.4642 15.1236 35.1615 15.3473C34.6484 15.4357 34.3629 15.7857 34.4286 16.2166C34.4981 16.6703 34.9012 16.9268 35.4256 16.8396C37.6002 16.4757 39.7724 16.1029 41.947 15.7453C42.3678 15.6758 42.6698 15.4976 42.7292 15.0579C42.7861 14.6359 42.5308 14.3907 42.1758 14.2163C41.3569 13.8132 40.5419 13.4 39.7256 12.9906C39.1418 12.6975 38.558 12.4018 37.9477 12.0935C38.0678 11.957 38.1486 11.861 38.2333 11.77C39.6094 10.2916 40.9867 8.81441 42.364 7.33725C42.407 7.29049 42.4512 7.24627 42.4929 7.19951C42.7608 6.89372 42.8429 6.55634 42.5978 6.20758C42.3716 5.88536 42.0557 5.81586 41.6779 5.93717C39.7142 6.56645 37.7493 7.18814 35.7844 7.8111C35.6138 7.86544 35.442 7.91345 35.2221 7.97916C35.2486 7.76308 35.26 7.62409 35.2853 7.48635C35.6669 5.37486 36.0498 3.26463 36.4352 1.15441C36.5438 0.561772 36.4326 0.238288 36.0384 0.0702282C35.5645 -0.131949 35.2714 0.133409 34.9921 0.472056C33.8675 1.83549 32.7353 3.19261 31.6044 4.55099C31.1331 5.11708 30.6605 5.68066 30.1601 6.27961C30.035 6.09133 29.9377 5.95233 29.848 5.80828C29.0747 4.58131 28.3013 3.35309 27.5293 2.12359C27.3334 1.81275 27.0617 1.64342 26.6953 1.72682C26.3351 1.80896 26.1266 2.05662 26.0976 2.42939C25.9068 4.85299 25.716 7.27786 25.5365 9.70146C25.4986 10.2221 25.7867 10.5721 26.2277 10.6062V10.6075Z" fill="#282525"/>
<path d="M9.09677 23.1981C8.80235 23.1639 8.49908 23.1627 8.20339 23.1816C7.89507 23.2006 7.67141 23.1109 7.47429 22.8607C7.20262 22.5144 6.90061 22.1922 6.59482 21.8751C6.25996 21.5276 5.82023 21.5048 5.50432 21.7955C5.19095 22.0836 5.17705 22.5258 5.48663 22.8935C5.74946 23.2056 6.05652 23.4862 6.29661 23.8134C6.797 24.4958 7.41743 24.8584 8.283 24.7043C8.56479 24.6904 8.85163 24.7043 9.12836 24.6575C9.54156 24.5868 9.75763 24.3113 9.73868 23.8905C9.72099 23.4925 9.49228 23.2435 9.09803 23.1981H9.09677Z" fill="#282525"/>
<path d="M33.4027 32.4642C29.4147 32.4642 25.4268 32.4642 21.4388 32.4642C21.2505 32.4642 21.0572 32.4604 20.874 32.4995C20.5025 32.5791 20.3079 32.8331 20.3028 33.2084C20.2978 33.5837 20.4823 33.8465 20.8525 33.935C21.0332 33.978 21.2278 33.9754 21.4161 33.9767C23.4025 33.9792 25.3889 33.978 27.374 33.978C29.3756 33.978 31.3784 33.978 33.3799 33.978C34.2 33.978 34.55 33.7455 34.5437 33.2084C34.5361 32.6916 34.1899 32.4629 33.4039 32.4629L33.4027 32.4642Z" fill="#282525"/>
<path d="M21.4687 30.3463C21.4536 29.8839 21.1402 29.6273 20.5526 29.6235C19.6883 29.6172 18.8227 29.6387 17.9584 29.6084C17.755 29.6008 17.5149 29.4808 17.3633 29.3367C17.0107 29.0019 16.7138 28.6076 16.3688 28.2639C16.0668 27.9632 15.6422 27.967 15.3465 28.231C15.0572 28.4901 15.0129 28.9235 15.2518 29.2571C15.325 29.3595 15.4148 29.4479 15.5007 29.5414C17.223 31.4179 16.4901 31.1045 19.0514 31.1374C19.5544 31.1374 20.0585 31.1449 20.5614 31.1348C21.1591 31.1222 21.4839 30.8316 21.4675 30.3476L21.4687 30.3463Z" fill="#282525"/>
<path d="M38.3788 28.3524C38.0768 28.6733 37.8102 29.0309 37.4854 29.3253C37.3212 29.4757 37.0672 29.5983 36.8486 29.6071C35.9843 29.6387 35.1187 29.6147 34.2544 29.6236C33.6845 29.6299 33.3673 29.9104 33.3711 30.3792C33.3737 30.8442 33.6908 31.1197 34.2645 31.1336C34.7674 31.1449 35.2716 31.1361 35.7745 31.1361C36.2774 31.1361 36.7816 31.1336 37.2845 31.1361C37.7192 31.1386 38.073 30.9857 38.3586 30.6458C38.7238 30.2124 39.1168 29.803 39.4883 29.3759C39.8282 28.9842 39.8269 28.5394 39.5034 28.2399C39.1774 27.9392 38.7326 27.9771 38.3801 28.3524H38.3788Z" fill="#282525"/>
</svg>
