<svg width="15" height="16" viewBox="0 0 15 16" fill="none" xmlns="http://www.w3.org/2000/svg">
  <path fill-rule="evenodd" clip-rule="evenodd" d="M7.50029 8.75427L13.8366 15.0906L14.5437 14.3835L8.20739 8.04716L14.5474 1.70711L13.8403 1L7.50029 7.34005L1.16023 1L0.453125 1.70711L6.79318 8.04716L0.456831 14.3835L1.16394 15.0906L7.50029 8.75427Z" fill="white" />
  <path d="M13.8366 15.0906L13.6599 15.2674L13.8366 15.4442L14.0134 15.2674L13.8366 15.0906ZM7.50029 8.75427L7.67706 8.57749L7.50029 8.40071L7.32351 8.57749L7.50029 8.75427ZM14.5437 14.3835L14.7205 14.5603L14.8973 14.3835L14.7205 14.2067L14.5437 14.3835ZM8.20739 8.04716L8.03062 7.87038L7.85384 8.04716L8.03062 8.22394L8.20739 8.04716ZM14.5474 1.70711L14.7242 1.88388L14.901 1.70711L14.7242 1.53033L14.5474 1.70711ZM13.8403 1L14.0171 0.823223L13.8403 0.646447L13.6636 0.823223L13.8403 1ZM7.50029 7.34005L7.32351 7.51683L7.50029 7.69361L7.67706 7.51683L7.50029 7.34005ZM1.16023 1L1.33701 0.823223L1.16023 0.646447L0.983455 0.823223L1.16023 1ZM0.453125 1.70711L0.276348 1.53033L0.0995716 1.70711L0.276348 1.88388L0.453125 1.70711ZM6.79318 8.04716L6.96996 8.22394L7.14673 8.04716L6.96996 7.87038L6.79318 8.04716ZM0.456831 14.3835L0.280055 14.2067L0.103278 14.3835L0.280055 14.5603L0.456831 14.3835ZM1.16394 15.0906L0.987161 15.2674L1.16394 15.4442L1.34071 15.2674L1.16394 15.0906ZM14.0134 14.9138L7.67706 8.57749L7.32351 8.93105L13.6599 15.2674L14.0134 14.9138ZM14.367 14.2067L13.6599 14.9138L14.0134 15.2674L14.7205 14.5603L14.367 14.2067ZM8.03062 8.22394L14.367 14.5603L14.7205 14.2067L8.38417 7.87038L8.03062 8.22394ZM14.3707 1.53033L8.03062 7.87038L8.38417 8.22394L14.7242 1.88388L14.3707 1.53033ZM13.6636 1.17678L14.3707 1.88388L14.7242 1.53033L14.0171 0.823223L13.6636 1.17678ZM7.67706 7.51683L14.0171 1.17678L13.6636 0.823223L7.32351 7.16328L7.67706 7.51683ZM0.983455 1.17678L7.32351 7.51683L7.67706 7.16328L1.33701 0.823223L0.983455 1.17678ZM0.629902 1.88388L1.33701 1.17678L0.983455 0.823223L0.276348 1.53033L0.629902 1.88388ZM6.96996 7.87038L0.629902 1.53033L0.276348 1.88388L6.6164 8.22394L6.96996 7.87038ZM0.633608 14.5603L6.96996 8.22394L6.6164 7.87038L0.280055 14.2067L0.633608 14.5603ZM1.34071 14.9138L0.633608 14.2067L0.280055 14.5603L0.987161 15.2674L1.34071 14.9138ZM7.32351 8.57749L0.987161 14.9138L1.34071 15.2674L7.67706 8.93105L7.32351 8.57749Z" fill="white" />
</svg>