<svg width="43" height="36" viewBox="0 0 43 36" fill="none" xmlns="http://www.w3.org/2000/svg">
<path d="M36.3553 24.225C37.1437 23.2001 37.311 21.9332 37.1789 20.6542C37.0237 19.1585 36.3476 17.9288 35.2036 16.9269C34.9151 17.2324 34.641 17.5248 34.3624 17.8215C35.4877 18.7971 36.0723 20.0443 35.9534 21.5729C35.8312 23.1333 35.0583 24.3038 33.7007 25.0813C33.4573 25.2204 33.3043 25.3496 33.2778 25.6583C33.2503 25.9792 33.1204 26.2913 33.0213 26.6559C33.1479 26.6285 33.2679 26.623 33.367 26.5759C34.3007 26.3997 35.7773 24.9784 36.3553 24.2261V24.225ZM32.6249 28.0202C32.223 28.0761 31.8949 28.2173 31.5481 28.4418C31.0284 28.7791 30.4404 29.032 29.8514 29.2346C29.5541 29.3364 29.4715 29.4415 29.4737 29.7328C29.4858 31.1694 29.4891 32.6072 29.4759 34.0438C29.4649 35.2395 28.6303 36.0608 27.5138 35.9863C26.8477 35.9414 26.3555 35.6041 26.0208 35.0315C25.7984 34.6515 25.1201 34.657 24.8955 35.038C24.1369 36.3236 22.4313 36.3148 21.665 35.0227C21.4536 34.6657 20.7665 34.6592 20.5562 35.0118C19.7723 36.3279 18.0898 36.3279 17.307 35.0118C17.0978 34.6592 16.4118 34.6657 16.2004 35.0216C15.7556 35.7717 14.9628 36.1363 14.1811 35.9524C13.3344 35.7531 12.7805 35.0873 12.7442 34.1785C12.72 33.5631 12.7244 32.9466 12.742 32.3312C12.7497 32.0619 12.6693 31.9239 12.4117 31.8089C10.8504 31.1114 9.84621 29.9277 9.40909 28.2776C9.35183 28.0629 9.26155 27.9764 9.04354 27.9151C6.15326 27.1004 4.36294 25.2302 3.86085 22.2748C3.48429 20.0629 4.16034 18.1117 5.70403 16.4692C5.83505 16.3301 5.97819 16.2031 6.15106 16.0367C5.89781 15.8308 5.65888 15.6359 5.3682 15.3994C5.16341 15.602 4.88924 15.8801 4.60847 16.1516C4.16364 16.5842 3.82232 16.5612 3.45016 16.0608C2.50104 14.7862 1.54753 13.5149 0.616032 12.2272C-0.307757 10.9504 -0.185539 9.38022 0.924328 8.26004C2.36231 6.80918 3.81571 5.37255 5.2636 3.93155L7.21138 1.99232C7.59675 1.60141 7.97992 1.2083 8.3807 0.834912C9.419 -0.13087 10.9352 -0.290738 12.099 0.515175C13.4962 1.48315 14.8527 2.51025 16.218 3.52311C16.588 3.79686 16.6067 4.17135 16.2808 4.51299C15.9978 4.81082 15.6884 5.08238 15.3636 5.39226C15.4682 5.51271 15.5387 5.60579 15.6213 5.68791C16.8633 6.92744 18.1031 8.17025 19.3572 9.39774C19.486 9.52476 19.7029 9.62221 19.8824 9.62769C20.706 9.65178 21.5306 9.64411 22.3542 9.63207C22.4908 9.62988 22.6647 9.58827 22.7561 9.49848C24.1137 8.16259 25.4592 6.81575 26.9027 5.37584C26.5922 5.10428 26.2828 4.859 26.0032 4.58525C25.5726 4.16259 25.5991 3.81438 26.0758 3.46179C27.3542 2.51572 28.6314 1.56637 29.9207 0.635624C31.2211 -0.303878 32.7956 -0.193284 33.9352 0.934556C36.3916 3.36434 38.8305 5.81164 41.2825 8.24581C41.767 8.7276 42.0181 9.32109 42.2041 9.95618V10.8596C42.0335 11.6589 41.5633 12.2951 41.0833 12.9313C40.3081 13.9595 39.5506 15.0008 38.782 16.0334C38.3802 16.5732 38.0509 16.5951 37.5698 16.1144C37.3176 15.8626 37.0787 15.5987 36.788 15.2932C36.5524 15.5735 36.3487 15.8177 36.0922 16.1232C36.2001 16.213 36.3707 16.329 36.5117 16.4736C38.6918 18.6953 39.1839 22.2956 37.4167 24.8426C36.5986 26.0219 35.2014 27.7574 32.6216 28.017L32.6249 28.0202ZM7.74539 3.19024L6.13014 4.80754C4.73289 6.20256 3.33345 7.59538 1.9351 8.98931C1.07848 9.8434 1.01462 10.6854 1.7303 11.6611C2.00447 12.0345 2.28193 12.4057 2.53628 12.7473C5.95837 9.33642 9.36174 5.94414 12.7982 2.51901C12.3027 2.17299 11.7907 1.7558 11.2236 1.43497C10.5564 1.05829 9.75923 1.22254 9.17566 1.77879C8.80901 2.12919 8.45778 2.49601 8.09443 2.85079L7.74539 3.19133V3.19024ZM11.9074 22.2442C12.0703 22.0909 12.1816 21.9912 12.2884 21.8872C14.3495 19.879 16.4096 17.8686 18.473 15.8615C19.9693 14.4062 21.6837 14.2803 23.3749 15.499C25.7103 17.182 28.0434 18.8672 30.3788 20.5502C30.4955 20.6345 30.6199 20.709 30.7707 20.8086C30.8996 20.4188 31.0394 20.0772 31.1165 19.7213C31.1484 19.5702 31.1022 19.337 30.9987 19.2318C28.2812 16.5031 25.5528 13.7843 22.8167 11.0742C22.6989 10.957 22.4864 10.8836 22.3157 10.8804C21.5064 10.8606 20.6949 10.8596 19.8857 10.8804C19.7161 10.8847 19.5135 10.969 19.3891 11.084C18.8782 11.5614 18.3937 12.0651 17.8983 12.5579C15.6851 14.7632 13.4687 16.9674 11.2633 19.1804C11.151 19.2932 11.0398 19.522 11.0783 19.6534C11.3249 20.5053 11.6134 21.3452 11.9063 22.2442H11.9074ZM29.4153 2.52996C32.8429 5.95071 36.243 9.34299 39.6728 12.7648C39.9349 12.4101 40.2189 12.0279 40.4997 11.6447C41.1967 10.692 41.1328 9.84121 40.2971 9.00464C39.1146 7.82314 37.9298 6.64384 36.7462 5.46453C35.5328 4.25566 34.3228 3.04351 33.105 1.84011C32.4653 1.2083 31.6351 1.04734 30.926 1.46782C30.3887 1.78646 29.8998 2.18613 29.4164 2.53105L29.4153 2.52996ZM14.4773 21.7602C15.8635 21.7219 17.2035 22.2518 18.2957 23.3676C19.3858 24.4823 19.8383 25.8467 19.7855 27.4607C19.9341 27.326 20.0244 27.2505 20.1081 27.1683C21.6363 25.6737 23.169 24.1834 24.6918 22.6822C25.6673 21.7208 26.5922 20.6904 28.1568 20.4736C26.9302 19.5943 25.7973 18.7807 24.6235 17.9398C24.4441 20.1067 23.2208 21.4985 21.4602 21.6244C19.4794 21.7657 18.1108 20.6597 17.5867 18.4456C16.512 19.591 15.4605 20.7134 14.4784 21.7602H14.4773ZM14.5213 31.0271C16.741 31.0183 18.5523 29.2083 18.5479 27.0008C18.5435 24.7889 16.7322 22.9964 14.5037 23.0008C12.2762 23.0052 10.4749 24.8021 10.4782 27.0183C10.4826 29.2247 12.3082 31.0358 14.5213 31.0271ZM10.2844 18.311C12.9809 15.626 15.6873 12.9302 18.3651 10.265C17.0791 8.98274 15.771 7.6797 14.4729 6.38542C14.1976 6.65588 13.8981 6.94824 13.5821 7.25703C13.679 7.36106 13.7682 7.46179 13.864 7.55706C14.3473 8.04214 14.8461 8.51408 15.3141 9.01449C15.8128 9.54885 15.9593 10.185 15.7027 10.8771C15.4473 11.5669 14.9298 11.9622 14.2009 12.0542C13.603 12.1297 13.0954 11.9162 12.6748 11.4935C12.1188 10.934 11.565 10.3723 11.0772 9.88063C10.65 10.2825 10.2756 10.634 9.86383 11.0216C10.4342 11.5746 11.0332 12.1199 11.5903 12.7046C12.3368 13.4886 12.2685 14.6493 11.4703 15.3326C10.748 15.9513 9.72289 15.9217 9.005 15.2308C8.42584 14.6734 7.87421 14.0865 7.33139 13.5335C6.97355 13.8697 6.66855 14.1555 6.38338 14.4237C7.68813 15.7235 8.98849 17.0178 10.2855 18.311H10.2844ZM27.7659 6.36461C26.4491 7.6786 25.1421 8.98383 23.8957 10.2266C26.5713 12.8929 29.2843 15.5965 31.9742 18.2759C33.2316 17.0233 34.532 15.729 35.7916 14.4741C35.5042 14.1872 35.2003 13.8839 34.8678 13.551C34.3305 14.0974 33.7876 14.68 33.2129 15.2275C32.419 15.9852 31.2783 15.9436 30.5714 15.1596C29.9229 14.4402 29.946 13.3988 30.6496 12.6729C31.209 12.0947 31.7914 11.5395 32.3155 11.0216C31.9202 10.6077 31.5657 10.2365 31.1682 9.8204C30.61 10.392 30.0617 10.9855 29.4781 11.5428C28.7283 12.2589 27.6283 12.2392 26.9236 11.5308C26.2157 10.8179 26.2101 9.73061 26.9236 8.98164C27.3398 8.54583 27.777 8.12864 28.2042 7.70269C28.3539 7.55268 28.5026 7.40048 28.638 7.26251C28.311 6.92525 28.0258 6.63179 27.7637 6.36242L27.7659 6.36461ZM28.8417 28.1265C30.6507 28.1341 32.1261 26.6756 32.1217 24.8831C32.1173 23.1092 30.6573 21.6463 28.8769 21.6343C27.0833 21.6211 25.6035 23.0928 25.6035 24.8897C25.6035 26.6767 27.047 28.1188 28.8428 28.1265H28.8417ZM13.9521 3.38186C10.4111 6.90444 6.90748 10.3898 3.38079 13.8981C3.60431 14.196 3.85535 14.5289 4.06675 14.8103C7.68153 11.211 11.271 7.6359 14.8659 4.05528C14.5698 3.83738 14.2394 3.59429 13.951 3.38186H13.9521ZM38.8426 13.8861C35.3093 10.3657 31.8079 6.87597 28.2867 3.36872C27.984 3.591 27.6459 3.83957 27.3442 4.06185C30.9513 7.65561 34.5397 11.2308 38.1467 14.8234C38.3736 14.5179 38.6224 14.1828 38.8437 13.8861H38.8426ZM21.1189 20.4068C22.3708 20.4024 23.3628 19.4103 23.3628 18.1631C23.3628 16.9181 22.3686 15.9217 21.12 15.914C19.8581 15.9064 18.8452 16.9214 18.8562 18.1828C18.8672 19.43 19.8647 20.4112 21.1189 20.4068ZM7.0264 16.951C5.40674 18.1237 4.62389 20.5863 5.19864 22.7041C5.73155 24.6696 7.58794 26.484 9.23843 26.6406C9.30559 26.2584 9.37276 25.8752 9.43992 25.4919C7.77512 24.9072 6.68067 23.8177 6.33824 22.1007C5.9936 20.375 6.57496 18.9373 7.87201 17.7963C7.58463 17.5094 7.31488 17.2401 7.0253 16.951H7.0264ZM8.79029 18.6712C7.78833 19.4487 7.3424 20.4604 7.51967 21.6956C7.68924 22.8815 8.384 23.6983 9.48176 24.1878C9.81648 24.3367 10.051 24.3444 10.2382 23.9688C10.345 23.7542 10.5289 23.5702 10.7061 23.4016C10.868 23.2483 10.8966 23.1136 10.824 22.9001C10.5399 22.0744 10.2294 21.2532 10.0268 20.4068C9.84401 19.6414 9.34303 19.1607 8.7914 18.6712H8.79029ZM33.3681 18.6526C33.0499 19.0282 32.658 19.372 32.4223 19.8023C32.1768 20.2491 32.0744 20.7769 31.9291 21.2751C31.896 21.3868 31.8982 21.5707 31.9665 21.6397C32.6029 22.2715 33.0224 23.0227 33.2503 23.8867C35.1507 22.9034 35.2377 19.9644 33.3681 18.6548V18.6526ZM25.7444 28.1166C24.8085 27.1596 24.3813 26.0799 24.3483 24.732C23.2175 25.9354 22.1616 27.0599 21.1684 28.1166H25.7444ZM22.6802 29.3802C22.6802 31.0052 22.6724 32.5907 22.6868 34.1763C22.6901 34.5179 22.9048 34.7402 23.2604 34.7566C23.6183 34.773 23.8142 34.5617 23.8836 34.2256C23.9001 34.1467 23.8957 34.0624 23.8957 33.9803C23.8957 32.5436 23.8957 31.1059 23.8957 29.6693C23.8957 29.5784 23.8748 29.4875 23.8605 29.3813H22.6802V29.3802ZM27.037 29.3758C27.037 30.3164 27.037 31.2165 27.037 32.1166C27.037 32.7867 27.0304 33.4558 27.0403 34.1259C27.0459 34.4971 27.2749 34.7424 27.6008 34.761C27.9498 34.7807 28.1965 34.5475 28.2394 34.1555C28.2449 34.1018 28.2438 34.046 28.2438 33.9912C28.2438 32.5557 28.2438 31.1213 28.2416 29.6857C28.2416 29.5839 28.213 29.4821 28.1976 29.3758H27.0348H27.037ZM19.5388 29.5718C19.4915 29.539 19.4452 29.505 19.3979 29.4722C19.0786 29.8259 18.756 30.1763 18.4422 30.5343C18.3838 30.6011 18.3288 30.6986 18.3288 30.7829C18.3222 31.9151 18.3145 33.0484 18.3332 34.1796C18.3398 34.542 18.6194 34.7698 18.9487 34.761C19.2757 34.7522 19.5322 34.5124 19.5344 34.1478C19.5443 32.6225 19.5388 31.0972 19.5388 29.5718ZM11.8689 8.94551C12.4513 9.52585 13.0162 10.1007 13.5953 10.6603C13.8475 10.9033 14.1469 10.9121 14.4024 10.6657C14.6424 10.4347 14.6722 10.1358 14.4398 9.89596C13.8618 9.30138 13.2584 8.73308 12.6561 8.14507C12.4007 8.40568 12.1518 8.65753 11.8689 8.94551ZM29.5398 8.12536C28.943 8.71775 28.366 9.27838 27.8056 9.85654C27.5611 10.1084 27.5578 10.4073 27.8089 10.6603C28.0434 10.8968 28.3429 10.9198 28.5818 10.6887C29.1786 10.1139 29.7501 9.5149 30.3369 8.91923C30.0749 8.65862 29.8249 8.40787 29.5398 8.12426V8.12536ZM33.2448 11.8483C32.6701 12.4166 32.0788 12.9816 31.5106 13.5686C31.2651 13.8215 31.2761 14.1259 31.5327 14.3701C31.7903 14.6154 32.0876 14.6011 32.3397 14.3569C32.9178 13.7963 33.4815 13.2225 34.0607 12.6433C33.7832 12.3728 33.5223 12.1188 33.2448 11.8483ZM8.14838 12.6455C8.73084 13.2225 9.29678 13.7941 9.87594 14.3537C10.1281 14.5978 10.4254 14.6165 10.683 14.3723C10.9396 14.1292 10.9561 13.8248 10.7094 13.5707C10.1402 12.9838 9.54892 12.4177 8.96646 11.8418C8.6934 12.11 8.43245 12.3674 8.14838 12.6455ZM13.9884 32.2436C13.9884 32.9324 13.9719 33.5839 13.9961 34.2343C14.0071 34.542 14.2185 34.7282 14.5312 34.7566C14.8461 34.7851 15.1236 34.6208 15.1434 34.3329C15.1919 33.6365 15.1588 32.9335 15.1588 32.2436H13.9884ZM20.7995 29.3802V33.5171H21.4106V29.3802H20.7995ZM25.163 29.3737V33.5204H25.7686V29.3737H25.163ZM16.4162 33.5127H17.0659V31.6677C17.035 31.6392 17.0042 31.6107 16.9734 31.5822C16.7873 31.7542 16.4779 31.9042 16.4416 32.1035C16.3612 32.548 16.4162 33.0178 16.4162 33.5127Z" fill="#D31313"/>
<path d="M14.5009 28.8574C13.478 28.8531 12.6434 28.0209 12.6445 27.0058C12.6467 25.9929 13.4857 25.1553 14.5031 25.1509C15.5392 25.1465 16.3958 26.0039 16.3782 27.0288C16.3606 28.0537 15.5304 28.8618 14.4998 28.8574H14.5009ZM15.1384 27.0179C15.1439 26.6795 14.8621 26.3904 14.5218 26.385C14.1838 26.3795 13.8898 26.662 13.8832 26.9981C13.8766 27.3398 14.1541 27.619 14.502 27.6245C14.8522 27.63 15.1329 27.3628 15.1384 27.0179Z" fill="#D31313"/>
<path d="M28.8483 26.7354C27.8221 26.731 26.9919 25.9021 26.9941 24.8848C26.9963 23.872 27.8354 23.031 28.8494 23.0244C29.8789 23.019 30.7433 23.884 30.7267 24.9045C30.7113 25.9251 29.8745 26.7386 28.8483 26.7343V26.7354ZM28.2328 24.8728C28.2251 25.2166 28.496 25.4947 28.845 25.5013C29.1941 25.5079 29.4781 25.2407 29.4858 24.8991C29.4935 24.5684 29.204 24.2683 28.8714 24.2607C28.5378 24.253 28.2405 24.5377 28.2328 24.8739V24.8728Z" fill="#D31313"/>
</svg>
