<svg width="33" height="31" viewBox="0 0 33 31" fill="none" xmlns="http://www.w3.org/2000/svg">
<path d="M31.0003 14.5844C31.4622 13.8467 31.7138 13.0855 31.5914 12.2426C31.3481 10.5693 30.0215 9.37901 28.3388 9.35963C26.4705 9.33749 24.6009 9.35825 22.7313 9.34994C22.0796 9.34718 21.8817 9.05099 22.0508 8.41847C22.224 7.76796 22.4109 7.12023 22.5347 6.46003C23.1684 3.06632 20.8328 0.0712201 17.5169 0.000633147C16.1188 -0.0284321 15.1152 0.945944 15.0506 2.35768C15.0149 3.15075 14.9819 3.95073 14.854 4.73273C14.2285 8.58041 12.1719 11.3181 8.56877 12.8115C8.24708 12.9443 7.87453 13.0066 7.52397 13.0094C5.41513 13.0274 3.30629 13.0149 1.19608 13.0205C0.514212 13.0218 0.0646746 13.3499 0.031681 13.9367C-0.0109357 14.7118 -0.00131272 15.4924 0.0261819 16.2688L0.00418675 19.9947C6.25567e-05 22.14 -0.00268691 24.2839 0.00418675 26.4292C0.00693622 27.2915 0.378113 27.65 1.2387 27.6527C2.81689 27.6569 4.39783 27.7233 5.97052 27.6333C7.29439 27.5572 8.4148 27.8866 9.52971 28.6105C11.7128 30.0278 14.1516 30.8457 16.7443 30.9316C20.067 31.0409 23.3966 30.9925 26.7221 30.9675C28.1147 30.9579 29.3162 29.9281 29.6778 28.5731C29.9307 27.6223 29.7644 26.7309 29.253 25.8659C30.3212 25.4687 31.0773 24.7946 31.4416 23.7234C31.8072 22.6507 31.5777 21.6598 31.0058 20.7283C33.6618 19.4203 33.67 15.9035 30.9989 14.5844H31.0003ZM7.31914 26.0707H1.54114C1.54114 25.8355 1.54114 25.6334 1.54114 25.4299C1.54114 23.614 1.54526 21.7982 1.53839 19.9809L1.51227 16.2841C1.55626 15.9076 1.53151 15.5242 1.54251 15.145C1.54801 14.9637 1.56451 14.7824 1.57551 14.6024H7.32051V26.0707H7.31914ZM29.675 19.3899C28.3031 19.4093 26.9324 19.3941 25.5605 19.3968C25.3886 19.3968 25.2168 19.394 25.0477 19.4176C24.6298 19.4757 24.4016 19.7387 24.3919 20.1525C24.3823 20.565 24.5968 20.8598 25.0133 20.9137C25.3845 20.9622 25.7653 20.9483 26.142 20.9511C26.8788 20.9566 27.6171 20.9373 28.3539 20.958C29.3588 20.9871 30.0957 21.7456 30.082 22.7047C30.0682 23.6597 29.308 24.4071 28.3113 24.4168C27.1112 24.4293 25.911 24.4168 24.7109 24.4209C24.1019 24.4223 23.7472 24.7005 23.7321 25.1725C23.7156 25.6611 24.0909 25.9711 24.7178 25.9752C25.3171 25.9794 25.9179 25.9683 26.5173 25.978C27.5195 25.9946 28.2522 26.7323 28.2494 27.7109C28.2467 28.6686 27.5346 29.4215 26.5571 29.4243C23.3513 29.4312 20.144 29.4728 16.9395 29.3883C14.6066 29.326 12.4386 28.562 10.4274 27.3648C9.92563 27.0659 9.24239 26.868 8.98531 26.4223C8.73099 25.978 8.90008 25.2818 8.89733 24.6964C8.89183 23.2611 8.89596 21.8258 8.89596 20.3906C8.89596 18.5401 8.9042 16.6896 8.88908 14.8391C8.88633 14.5042 8.96469 14.3326 9.29738 14.1886C13.4326 12.4004 15.7243 9.18247 16.4006 4.74657C16.5147 3.99779 16.5381 3.23379 16.589 2.47533C16.6343 1.7916 16.9216 1.52586 17.6104 1.55908C19.9722 1.67257 21.5023 3.83309 20.9909 6.34931C20.885 6.87248 20.7489 7.3915 20.5963 7.9036C20.0822 9.63644 21.0101 10.9001 22.8151 10.9029C24.5817 10.9056 26.3482 10.8779 28.112 10.9222C28.5478 10.9333 29.0303 11.0828 29.3973 11.3167C30.0215 11.7139 30.2071 12.4502 29.9912 13.1492C29.7754 13.8523 29.165 14.3381 28.4268 14.3575C27.7408 14.3755 27.0548 14.3575 26.3702 14.3658C25.801 14.3727 25.4656 14.6606 25.456 15.127C25.445 15.6183 25.7845 15.9145 26.3881 15.9173C27.4686 15.9228 28.5478 15.9145 29.6283 15.9201C30.7088 15.9256 31.4677 16.6495 31.4663 17.6598C31.4663 18.6522 30.7391 19.3747 29.6723 19.3899H29.675Z" fill="#282525"/>
</svg>
