<svg width="47" height="40" viewBox="0 0 47 40" fill="none" xmlns="http://www.w3.org/2000/svg">
<path d="M10.4257 34.2013L10.7082 34.8961L10.4257 34.2013L5.77673 36.0918C5.60512 36.1616 5.41987 36.027 5.43321 35.8422L5.79453 30.8366C5.82738 30.3815 5.68119 29.9316 5.38712 29.5827L2.15258 25.7455C2.03318 25.6038 2.10394 25.386 2.28379 25.3416L7.15607 24.1384C7.59904 24.029 7.98177 23.751 8.22268 23.3635L10.8726 19.1015C10.9704 18.9442 11.1994 18.9442 11.2972 19.1015L13.9471 23.3635C14.188 23.751 14.5708 24.029 15.0137 24.1384L19.886 25.3416C20.0659 25.386 20.1366 25.6038 20.0172 25.7455L16.7827 29.5827C16.4886 29.9316 16.3424 30.3815 16.3753 30.8366L16.7366 35.8422C16.7499 36.027 16.5647 36.1616 16.3931 36.0918L11.7441 34.2013C11.3214 34.0294 10.8484 34.0294 10.4257 34.2013Z" stroke="#282525" stroke-width="1.5"/>
<path d="M35.2558 34.2013L35.5383 34.8961L35.2558 34.2013L30.6068 36.0918C30.4352 36.1616 30.25 36.027 30.2633 35.8422L30.6246 30.8366C30.6575 30.3815 30.5113 29.9316 30.2172 29.5827L26.9827 25.7455C26.8633 25.6038 26.934 25.386 27.1139 25.3416L31.9861 24.1384C32.4291 24.029 32.8118 23.751 33.0528 23.3635L35.7027 19.1015C35.8005 18.9442 36.0295 18.9442 36.1273 19.1015L38.7772 23.3635C39.0181 23.751 39.4009 24.029 39.8438 24.1384L44.7161 25.3416C44.896 25.386 44.9667 25.6038 44.8473 25.7455L41.6128 29.5827C41.3187 29.9316 41.1725 30.3815 41.2054 30.8366L41.5667 35.8422C41.58 36.027 41.3948 36.1616 41.2232 36.0918L36.5742 34.2013C36.1515 34.0294 35.6784 34.0294 35.2558 34.2013Z" stroke="#282525" stroke-width="1.5"/>
<path d="M22.8417 17.3523L23.1242 18.047L22.8417 17.3523L18.1927 19.2427C18.0211 19.3125 17.8359 19.1779 17.8492 18.9931L18.2105 13.9875C18.2434 13.5324 18.0972 13.0825 17.8031 12.7336L14.5686 8.89639C14.4492 8.75474 14.52 8.53697 14.6998 8.49256L19.5721 7.28937C20.0151 7.17998 20.3978 6.90192 20.6387 6.51443L23.2886 2.25243C23.3864 2.0951 23.6154 2.0951 23.7132 2.25242L26.3631 6.51443C26.6041 6.90192 26.9868 7.17998 27.4298 7.28937L32.302 8.49256C32.4819 8.53697 32.5526 8.75474 32.4332 8.89639L29.1987 12.7336C28.9046 13.0825 28.7584 13.5324 28.7913 13.9875L29.1526 18.9931C29.166 19.1779 28.9807 19.3125 28.8091 19.2427L24.1601 17.3523C23.7375 17.1804 23.2644 17.1804 22.8417 17.3523Z" stroke="#282525" stroke-width="1.5"/>
</svg>
