<svg width="165" height="45" viewBox="0 0 165 45" fill="none" xmlns="http://www.w3.org/2000/svg">
<path d="M157.94 30.2245C161.53 30.2245 162.978 30.5509 163.916 31.5708C164.487 32.2032 164.793 33.0803 164.916 34.447C164.977 35.0794 164.997 35.8137 164.997 37.3232C164.997 40.7297 164.671 42.0353 163.631 42.9532C162.917 43.5855 161.897 43.9119 160.326 44.0139C159.429 44.0955 157.634 44.1159 154.472 44.1159C151.106 44.1159 149.76 43.9323 148.679 43.3612C147.292 42.6064 146.843 41.2397 146.843 37.6088C146.843 35.1202 146.884 34.3042 147.026 33.5495C147.353 31.734 148.556 30.6937 150.616 30.4285C151.861 30.2653 153.207 30.2245 157.94 30.2245ZM156.002 32.7947C150.086 32.7947 150.045 32.8355 150.045 37.2008C150.045 41.4233 150.188 41.5457 155.471 41.5457C159.327 41.5457 160.143 41.4845 160.877 41.0765C161.652 40.6686 161.856 39.8118 161.856 37.0988C161.856 32.8355 161.815 32.7947 156.002 32.7947Z" fill="#333333"/>
<path d="M135.276 32.9171H130.197C129.361 32.9579 128.891 32.5295 128.871 31.7748V31.5096C128.891 30.7549 129.361 30.3265 130.197 30.3673H143.476C144.313 30.3265 144.782 30.7549 144.802 31.5096V31.7748C144.782 32.5295 144.313 32.9579 143.476 32.9171H138.418V42.6472C138.438 43.5243 138.01 43.9731 137.153 43.9731H136.521C135.664 43.9731 135.235 43.5243 135.276 42.6472V32.9171Z" fill="#333333"/>
<path d="M124.51 30.3673H125.163C125.999 30.3673 126.428 30.8161 126.407 31.6932V38.9347C126.407 41.5253 125.999 42.586 124.694 43.3204C123.511 43.9935 122.389 44.1159 117.391 44.1159C112.863 44.1159 111.414 43.8303 110.415 42.7084C109.721 41.9129 109.517 40.9745 109.517 38.4655V31.6932C109.497 30.8161 109.925 30.3673 110.762 30.3673H111.414C112.251 30.3673 112.679 30.8161 112.659 31.6932V37.4864C112.659 39.1795 112.679 39.4854 112.761 39.975C113.026 41.3213 113.842 41.5865 117.758 41.5865C119.615 41.5865 121.389 41.5049 121.858 41.3825C122.654 41.1785 123.082 40.689 123.205 39.8322C123.245 39.5874 123.266 39.0979 123.266 37.6904V31.6932C123.246 30.8161 123.674 30.3673 124.51 30.3673Z" fill="#333333"/>
<path d="M102.911 41.2805H93.1809L92.2426 42.9532C91.855 43.7487 91.4062 44.0139 90.5291 43.9731H89.5704C88.9992 43.9731 88.6729 43.7079 88.6729 43.2388C88.6729 43.1164 88.734 42.9328 88.8564 42.7492L95.3636 31.3668C95.7715 30.5917 96.2203 30.3265 97.0974 30.3673H99.0353C99.9124 30.3265 100.361 30.5917 100.769 31.3668L107.174 42.7288C107.297 42.9532 107.358 43.1164 107.358 43.2388C107.358 43.6875 107.011 43.9731 106.46 43.9731H105.563C104.706 44.0139 104.257 43.7487 103.87 42.9736L102.911 41.2805ZM101.728 39.0775L98.0358 32.5704L94.3844 39.0775H101.728Z" fill="#333333"/>
<path d="M71.571 39.6894H72.183C72.8765 39.6486 73.3253 39.9954 73.4477 40.6278C73.6109 41.5457 74.386 41.7905 77.2418 41.7905C79.1389 41.7905 80.1588 41.7293 81.6887 41.5457C82.4638 41.4437 82.8514 41.3009 83.0962 41.0153C83.3614 40.7094 83.5041 40.281 83.5041 39.873C83.5041 39.0571 83.1574 38.6695 82.219 38.4655C81.6275 38.3431 81.6275 38.3431 77.915 38.3227H75.9567C73.1009 38.3227 71.9586 38.0983 71.2038 37.4048C70.5511 36.8132 70.2451 35.9565 70.2451 34.7734C70.2451 33.2435 70.6123 31.9992 71.265 31.428C72.183 30.5713 74.2636 30.2449 78.7717 30.2449C82.321 30.2449 83.6673 30.4081 84.8097 30.9997C85.5848 31.4076 86.0744 32.2644 86.0744 33.2843C86.0744 33.9982 85.6256 34.4266 84.8708 34.4266H84.2997C83.5653 34.4062 83.4021 34.2838 82.8718 33.3863C82.6678 33.0191 82.2598 32.8355 81.4643 32.7335C80.4648 32.6111 79.9956 32.5703 79.0777 32.5703C76.5075 32.5703 74.7124 32.7335 74.1004 33.0395C73.6109 33.2843 73.3661 33.7331 73.3661 34.3858C73.3661 34.957 73.5497 35.3445 73.9372 35.5689C74.4064 35.8341 75.1816 35.9157 77.3234 35.9157H79.6284C83.7081 35.9157 84.9524 36.1401 85.8092 37.058C86.3803 37.6496 86.6455 38.5471 86.6455 39.8934C86.6455 41.3417 86.3395 42.3208 85.6664 42.9532C84.7892 43.8099 82.9942 44.0955 78.4657 44.0955C73.1825 44.0955 71.7954 43.8507 70.9183 42.8104C70.5307 42.3412 70.3471 41.7497 70.3471 40.9541C70.3471 40.0974 70.7347 39.6894 71.571 39.6894Z" fill="#D31313"/>
<path d="M60.253 30.2245C63.8432 30.2245 65.2915 30.5509 66.2298 31.5708C66.801 32.2032 67.1069 33.0803 67.2293 34.447C67.2905 35.0794 67.3109 35.8137 67.3109 37.3232C67.3109 40.7297 66.9845 42.0353 65.9442 42.9532C65.2303 43.5855 64.2103 43.9119 62.6397 44.0139C61.7421 44.0955 59.9471 44.1159 56.7853 44.1159C53.4195 44.1159 52.0732 43.9323 50.9921 43.3612C49.605 42.6064 49.1562 41.2397 49.1562 37.6088C49.1562 35.1202 49.197 34.3042 49.3398 33.5495C49.6662 31.734 50.8697 30.6937 52.93 30.4285C54.1743 30.2653 55.5206 30.2245 60.253 30.2245ZM58.3152 32.7947C52.3996 32.7947 52.3588 32.8355 52.3588 37.2008C52.3588 41.4233 52.5016 41.5457 57.7848 41.5457C61.6401 41.5457 62.4561 41.4845 63.1904 41.0765C63.9656 40.6686 64.1696 39.8118 64.1696 37.0988C64.1696 32.8355 64.1288 32.7947 58.3152 32.7947Z" fill="#D31313"/>
<path d="M42.7126 42.6472V31.6932C42.6922 30.8161 43.1206 30.3673 43.9569 30.3673H44.6097C45.446 30.3673 45.8744 30.8161 45.854 31.6932V42.6472C45.8744 43.5243 45.446 43.9731 44.6097 43.9731H43.9569C43.1206 43.9731 42.6922 43.5243 42.7126 42.6472Z" fill="#D31313"/>
<path d="M21.7312 42.6472V31.6932C21.7108 30.7753 22.1391 30.3469 23.0571 30.3673H33.0319C35.6225 30.3673 37.2952 30.8569 38.2132 31.8564C39.0495 32.7947 39.3759 34.3246 39.3759 37.3232C39.3759 40.3626 38.9883 41.8517 37.948 42.8104C37.0912 43.6059 35.6429 43.9731 33.3583 43.9731H23.0571C22.1391 43.9935 21.7108 43.5652 21.7312 42.6472ZM24.8725 41.4845H32.6648C33.7663 41.4845 34.521 41.3417 35.0718 41.0357C35.8673 40.6074 36.1937 39.567 36.1937 37.5476C36.1937 33.6719 35.6225 32.9375 32.6648 32.9375H24.8725V41.4845Z" fill="#D31313"/>
<path d="M15.0194 41.2805H5.28932L4.35099 42.9532C3.96342 43.7487 3.51465 44.0139 2.63751 43.9731H1.67878C1.10763 43.9731 0.78125 43.7079 0.78125 43.2388C0.78125 43.1164 0.842445 42.9328 0.964836 42.7492L7.47196 31.3668C7.87993 30.5917 8.3287 30.3265 9.20583 30.3673H11.1437C12.0208 30.3265 12.4696 30.5917 12.8776 31.3668L19.2827 42.7288C19.4051 42.9532 19.4663 43.1164 19.4663 43.2388C19.4663 43.6875 19.1195 43.9731 18.5687 43.9731H17.6712C16.8145 44.0139 16.3657 43.7487 15.9781 42.9736L15.0194 41.2805ZM13.8363 39.0775L10.1442 32.5704L6.49283 39.0775H13.8363Z" fill="#D31313"/>
<g clip-path="url(#clip0_413_550)">
<path d="M65.6752 20.444C58.8788 19.4005 52.0793 18.3709 45.2893 17.3099C37.199 16.0451 29.1898 16.2905 21.2187 18.2725C19.5082 18.6985 17.666 18.576 15.884 18.7053C15.8531 18.543 15.8221 18.3807 15.7911 18.2149C16.1645 18.0888 16.534 17.9455 16.9146 17.8365C25.9855 15.1819 34.9927 12.2686 44.15 9.96581C51.2569 8.17971 58.5356 7.05219 65.7674 5.81819C76.5624 3.97529 86.9459 6.27855 97.2046 9.43765C101.652 10.8068 106.078 12.2492 110.623 13.37C106.752 11.8044 102.916 10.1409 99.0039 8.69413C91.8888 6.06586 84.7245 3.52885 77.1003 2.93352C70.0137 2.3784 63.0151 3.33677 56.0183 4.37487C43.7389 6.19838 32.0456 10.2596 20.2181 13.8175C16.6277 14.8986 13.0299 16.2608 9.19335 15.3187C7.18569 14.8253 5.24034 14.0566 3.3014 13.423C4.49134 15.7584 6.75007 17.252 9.04458 18.6615C13.3564 21.3132 17.9702 21.9955 22.835 20.5604C32.1807 17.8061 41.5936 18.2616 51.101 19.5958C55.9267 20.2734 60.8493 20.2276 65.7279 20.5088C65.7103 20.4849 65.6961 20.4609 65.6785 20.4405L65.6752 20.444Z" fill="#D31313"/>
<path d="M162.993 24.1897C158.062 22.6405 153.17 20.9344 148.189 19.57C131.718 15.0494 114.923 14.4164 98.0053 15.5512C81.4704 16.6602 64.9882 15.8123 48.5245 14.246C46.2631 14.0322 44.0051 13.8148 41.6893 13.9281C44.9921 14.5422 48.295 15.1631 51.5977 15.7737C69.3062 19.0534 87.1407 19.3584 105.058 18.3056C124.372 17.1702 143.38 19.2006 162.019 24.551C162.277 24.625 162.539 24.6956 162.8 24.7661L162.996 24.1931L162.993 24.1897Z" fill="#D31313"/>
</g>
<defs>
<clipPath id="clip0_413_550">
<rect width="159.423" height="26.7097" fill="white" transform="matrix(-0.999758 0.0219766 0.0219766 0.999758 162.479 0.789719)"/>
</clipPath>
</defs>
</svg>
