<svg width="32" height="32" viewBox="0 0 32 32" fill="none" xmlns="http://www.w3.org/2000/svg">
<path d="M3.34112 23.5276V8.45445C2.05315 8.11482 1.06021 7.38267 0.454878 6.17361C0.00622281 5.27876 -0.110773 4.33307 0.104907 3.35687C0.539319 1.38413 2.32784 -0.0354243 4.31677 0.000166245C6.33725 0.0367737 8.081 1.51429 8.45946 3.4494C8.80739 5.2269 7.94264 7.7162 5.19984 8.46971V15.0652H15.0601C15.0672 14.9614 15.0814 14.8526 15.0814 14.7438C15.0825 12.7609 15.0774 10.778 15.0886 8.79511C15.0896 8.53784 15.0265 8.43107 14.764 8.35378C12.7904 7.76705 11.4739 5.74855 11.7598 3.78294C12.0802 1.57632 13.8403 0.00321687 15.992 0.000166245C18.0898 -0.00288438 19.8651 1.52649 20.2018 3.62634C20.5365 5.71195 19.2658 7.74163 17.2393 8.3609C17.1426 8.39039 17.046 8.41785 16.932 8.4514V15.0611H26.7902V8.54902C26.2225 8.24396 25.6457 8.0172 25.1665 7.66129C23.5713 6.47562 23.0504 4.34832 23.8562 2.53727C24.6507 0.752653 26.5878 -0.271339 28.5106 0.0774486C30.3896 0.419118 31.8791 2.05628 31.991 3.90496C32.1161 5.96108 30.9187 7.75281 28.9959 8.34158C28.709 8.42903 28.6286 8.53987 28.6306 8.8307C28.6439 11.1441 28.6388 13.4575 28.6377 15.7709C28.6377 16.5966 28.3152 16.9159 27.48 16.9159C24.1298 16.9159 20.7787 16.9159 17.4285 16.9159H16.9422V23.5459C18.2973 23.9089 19.335 24.7132 19.9139 26.0494C20.3117 26.9687 20.3636 27.9164 20.1021 28.8814C19.6026 30.7291 17.7907 32.0703 15.8943 31.9971C13.883 31.9188 12.1769 30.486 11.8178 28.5692C11.6041 27.4314 11.8025 26.3708 12.4302 25.3976C13.0579 24.4234 13.9674 23.8377 15.0753 23.5459V16.9433H5.20493V23.5499C6.47561 23.8794 7.45939 24.6055 8.06676 25.7952C8.52151 26.686 8.6436 27.6296 8.44013 28.6099C8.03318 30.5725 6.25281 32.0114 4.25471 32.0012C2.2495 31.99 0.480312 30.5257 0.0855768 28.5845C-0.289829 26.7389 0.620708 24.275 3.34112 23.5286V23.5276ZM1.82221 4.26188C1.77846 5.53094 2.85076 6.64849 4.15298 6.69221C5.51319 6.73899 6.64957 5.69364 6.69943 4.34934C6.74928 3.01723 5.69936 1.86918 4.38188 1.81529C2.97589 1.75834 1.87206 2.81386 1.82221 4.26087V4.26188ZM16.0113 1.81427C14.6613 1.80817 13.5605 2.90232 13.5605 4.24765C13.5605 5.59907 14.6521 6.69425 16.0001 6.69425C17.3278 6.69425 18.4224 5.60721 18.4326 4.27815C18.4428 2.92571 17.3552 1.81935 16.0113 1.81325V1.81427ZM27.712 6.70441C29.0722 6.70543 30.1567 5.62958 30.1607 4.27409C30.1648 2.93283 29.0569 1.82444 27.717 1.82851C26.3914 1.83257 25.2967 2.92469 25.2886 4.2507C25.2794 5.60721 26.3629 6.7034 27.713 6.70441H27.712ZM6.73198 27.7751C6.66992 26.3097 5.58542 25.2563 4.19062 25.3061C2.87619 25.3529 1.80695 26.5192 1.87206 27.8351C1.94022 29.2027 3.05016 30.2298 4.41139 30.182C5.68817 30.1383 6.78387 29.0014 6.73198 27.7751ZM16.0194 30.184C17.3023 30.1952 18.4367 29.1377 18.4662 27.9052C18.4998 26.4979 17.399 25.3173 16.0408 25.3041C14.7193 25.2918 13.6266 26.3738 13.6093 27.714C13.591 29.0665 14.6714 30.1728 16.0205 30.184H16.0194Z" fill="#D31313"/>
</svg>
