<svg width="40" height="36" viewBox="0 0 40 36" fill="none" xmlns="http://www.w3.org/2000/svg">
<path d="M26.1953 31.9983C21.4063 32.0525 16.6894 32.1066 11.9278 32.1594C11.9278 32.6022 11.934 32.9981 11.9278 33.3929C11.9005 34.8292 10.8277 35.9336 9.37877 35.9766C8.40409 36.0061 7.4257 36.0024 6.45103 35.9766C5.07035 35.9397 4.02366 34.9535 3.90447 33.5884C3.86722 33.1629 3.89826 32.7325 3.89826 32.2886C3.73685 32.2345 3.60896 32.1914 3.48232 32.1496C2.54738 31.8483 1.91539 31.0686 1.90794 30.0922C1.88932 27.7753 1.88932 25.4585 1.91167 23.1416C1.92036 22.2525 2.27795 21.4741 2.8702 20.8026C3.32712 20.2836 3.77658 19.7585 4.27323 19.1867C4.10685 19.1695 3.99511 19.1486 3.88336 19.1486C3.07755 19.1449 2.27174 19.1572 1.46593 19.1437C0.564513 19.1277 -0.0302228 18.4882 0.00330091 17.5978C0.0579321 16.1566 1.20891 15.0055 2.69016 14.933C3.21537 14.9071 6.22754 14.9157 6.75398 14.9293C7.2407 14.9416 7.53869 15.2306 7.54365 15.6548C7.54862 16.1012 7.24567 16.3828 6.72543 16.3939C6.24492 16.4037 3.28118 16.3816 2.80191 16.4025C2.04328 16.437 1.53546 16.9448 1.53422 17.6741C2.74107 17.6741 3.94792 17.6839 5.15478 17.6593C5.27646 17.6569 5.45028 17.4663 5.50492 17.3261C6.04378 15.9561 6.56277 14.5788 7.08798 13.2027C7.74231 11.4884 9.00752 10.6042 10.8414 10.598C13.1657 10.5919 17.2283 10.5907 19.5526 10.6042C19.8022 10.6054 20.1337 10.6448 20.2789 10.801C20.4478 10.9805 20.5682 11.3494 20.495 11.5646C20.423 11.7774 20.1014 12 19.8568 12.043C19.421 12.1205 17.2233 12.0676 16.7738 12.0676C14.8369 12.0676 12.9 12.0664 10.9631 12.0676C9.62088 12.0688 8.93178 12.5386 8.45997 13.7708C7.98319 15.0166 7.49896 16.2599 7.03707 17.5118C6.69687 18.4316 6.19774 19.2494 5.54589 19.9824C5.02441 20.5702 4.52031 21.1728 3.99759 21.7594C3.56675 22.2451 3.3805 22.8047 3.38175 23.4466C3.38795 25.5482 3.38299 27.6511 3.38423 29.7528C3.38423 30.5423 3.61641 30.776 4.4036 30.7661C12.196 30.6739 19.9884 30.5804 27.782 30.4882C29.7811 30.4648 31.7788 30.4501 33.7778 30.4267C34.7103 30.4156 34.894 30.225 34.8953 29.3138C34.8953 27.2269 34.8878 25.14 34.9027 23.0531C34.9052 22.6436 34.8146 22.3066 34.5178 22.0139C34.2993 21.7975 33.1732 20.4361 32.9832 20.1939C32.6864 19.8151 32.7212 19.4044 33.0552 19.1301C33.3755 18.867 33.7791 18.8903 34.092 19.2273C34.4272 19.5888 35.721 21.0633 35.9656 21.4814C36.1816 21.8516 36.3567 22.3054 36.3629 22.7247C36.4001 25.0416 36.3889 27.3585 36.3778 29.6753C36.3728 30.8584 35.6117 31.6602 34.2409 31.9098C34.2409 32.3156 34.2409 32.7374 34.2409 33.1605C34.2372 34.9067 33.1645 35.9754 31.4076 35.9791C30.5707 35.9815 29.7339 35.9865 28.897 35.9778C27.35 35.9619 26.2648 34.9276 26.1977 33.399C26.1779 32.9576 26.1953 32.5136 26.1953 31.9922V31.9983ZM32.7473 31.9639C31.1232 31.9639 29.5625 31.9676 28.0018 31.9602C27.7622 31.9602 27.6691 32.0463 27.6765 32.2824C27.6902 32.6649 27.6641 33.0486 27.6926 33.4298C27.7411 34.0742 28.152 34.4874 28.7977 34.5034C29.7401 34.528 30.6837 34.5255 31.6261 34.5034C32.2506 34.4898 32.7013 34.0729 32.7398 33.4851C32.7721 32.9846 32.746 32.4816 32.746 31.9614L32.7473 31.9639ZM5.40683 32.2246C5.3882 32.3722 5.36834 32.4607 5.36834 32.5493C5.36834 32.8555 5.35468 33.1642 5.38448 33.4679C5.44408 34.0852 5.85133 34.4874 6.48207 34.5034C7.4257 34.528 8.37181 34.5243 9.31544 34.5046C9.88659 34.4935 10.3385 34.1406 10.4043 33.6179C10.4615 33.1555 10.4168 32.6809 10.4168 32.2234H5.40807L5.40683 32.2246Z" fill="#282525"/>
<path d="M29.6771 2.47744e-07C35.3686 -0.00122951 39.9986 4.57594 40.0011 10.2082C40.0036 15.8381 35.3711 20.43 29.6882 20.4312C23.9979 20.4325 19.3716 15.8528 19.3691 10.2193C19.3667 4.58209 23.988 0.00123001 29.6771 2.47744e-07ZM20.8554 10.2095C20.8529 15.0178 24.7975 18.9445 29.6435 18.958C34.5206 18.9715 38.5012 15.0596 38.5137 10.2402C38.5261 5.41217 34.5715 1.4794 29.6982 1.47202C24.8198 1.46587 20.8578 5.37897 20.8554 10.2095Z" fill="#282525"/>
<path d="M16.0669 19.718C14.2703 19.718 12.4674 19.7979 10.6783 19.6811C9.89977 19.6307 7.44137 18.4526 6.70261 18.1267C6.38475 17.9865 6.33509 17.6053 6.49401 17.2744C6.66039 16.9289 6.94969 16.7875 7.33459 16.8686C7.41033 16.8846 9.17964 17.6643 9.24544 17.7024C10.168 18.2287 11.1687 18.2669 12.2042 18.257C15.2561 18.2275 18.308 18.246 21.3599 18.246C21.499 18.246 25.4883 18.2386 25.6274 18.2521C26.0731 18.2951 26.3711 18.594 26.3736 18.9875C26.3748 19.4032 26.0632 19.7057 25.5864 19.7143C24.9047 19.7266 20.3741 19.7192 19.6924 19.7192C18.4843 19.7192 17.2762 19.7192 16.0669 19.7192V19.718Z" fill="#282525"/>
<path d="M19.1462 28.9314C17.2577 28.9314 15.3692 28.9277 13.4819 28.9338C13.0647 28.9351 12.7518 28.8047 12.6252 28.3866C12.5097 28.0054 12.7431 27.6094 13.1554 27.5061C13.3168 27.4655 13.4918 27.4618 13.6607 27.4618C17.3446 27.4593 21.0285 27.4606 24.7123 27.4606C24.7583 27.4606 24.8055 27.4606 24.8514 27.4606C25.4188 27.4778 25.7764 27.7779 25.7628 28.2243C25.7491 28.667 25.4226 28.9301 24.8589 28.9314C22.9555 28.9351 21.0508 28.9326 19.1474 28.9326L19.1462 28.9314Z" fill="#282525"/>
<path d="M9.90591 25.081C8.60469 25.1584 7.19421 24.9088 5.90665 24.1254C5.3591 23.7922 5.19893 23.4159 5.43732 23.0051C5.67819 22.5907 6.10779 22.528 6.64666 22.8526C7.51827 23.3765 8.4619 23.6151 9.47631 23.6114C10.1269 23.6089 10.7775 23.6028 11.4281 23.6151C11.9682 23.6249 12.306 23.9311 12.2948 24.3677C12.2836 24.7907 11.9608 25.0687 11.4393 25.081C10.9898 25.092 10.5404 25.0834 9.90467 25.0834L9.90591 25.081Z" fill="#282525"/>
<path d="M28.5503 25.0785C27.9146 25.0785 27.4328 25.0908 26.9536 25.0748C26.4743 25.0588 26.1614 24.7588 26.1602 24.3492C26.1602 23.9422 26.4718 23.6323 26.9511 23.6175C27.6017 23.5979 28.2523 23.6028 28.9029 23.6114C29.967 23.6249 30.954 23.3728 31.8654 22.8243C32.3484 22.5341 32.7631 22.6005 33.004 22.9793C33.2548 23.3753 33.1145 23.7799 32.6166 24.0873C31.3216 24.8866 29.8999 25.1621 28.5503 25.0797V25.0785Z" fill="#282525"/>
<path d="M33.9184 5.1994C33.7892 5.47487 33.7309 5.66917 33.6191 5.82658C31.3358 9.03133 29.0463 12.2336 26.7555 15.4335C26.4376 15.8774 26.0105 15.9819 25.643 15.7311C25.2643 15.4716 25.2121 15.051 25.5337 14.6009C27.8282 11.3851 30.1289 8.17296 32.4247 4.95714C32.6581 4.63002 32.9772 4.45908 33.341 4.62879C33.5732 4.73701 33.7296 5.00387 33.9196 5.20063L33.9184 5.1994Z" fill="#282525"/>
<path d="M35.2968 13.6245C35.3005 15.0055 34.1954 16.1098 32.8048 16.1172C31.403 16.1246 30.2533 14.9908 30.2657 13.6147C30.2781 12.2509 31.4142 11.1379 32.7924 11.1404C34.1805 11.1428 35.2943 12.2472 35.2968 13.6245ZM33.8056 13.6454C33.813 13.076 33.3586 12.6149 32.7887 12.6149C32.2262 12.6149 31.7495 13.0871 31.7557 13.6405C31.7619 14.184 32.2089 14.6304 32.7601 14.6427C33.3387 14.6563 33.7981 14.2185 33.8056 13.6454Z" fill="#282525"/>
<path d="M26.491 9.48883C25.1017 9.49252 23.9805 8.39926 23.9631 7.02439C23.9457 5.6446 25.0917 4.50584 26.4935 4.51199C27.8717 4.51691 29.0016 5.64091 29.0003 7.00471C28.9991 8.37343 27.8754 9.48514 26.491 9.48883ZM26.4749 8.01557C27.0498 8.01803 27.5104 7.56425 27.5079 6.99856C27.5042 6.43902 27.0286 5.97786 26.4637 5.98647C25.9162 5.99508 25.4654 6.44271 25.4555 6.98627C25.4456 7.55318 25.9 8.01312 26.4749 8.01557Z" fill="#282525"/>
</svg>
