<svg width="39" height="32" viewBox="0 0 39 32" fill="none" xmlns="http://www.w3.org/2000/svg">
<path d="M38.3997 19.631C38.3287 20.1806 38.2657 20.7334 38.1837 21.2815C37.5753 25.3033 35.7736 28.7524 32.8464 31.6565C32.3987 32.1009 31.8439 32.1115 31.3899 31.6779C30.4378 30.7679 29.492 29.8518 28.5526 28.9296C28.138 28.5234 28.1191 27.9631 28.4848 27.5981C28.8615 27.2241 29.4495 27.2424 29.8877 27.6577C30.6112 28.3432 31.3268 29.0364 32.0456 29.7266C32.0535 29.7342 32.0677 29.7327 32.1213 29.748C34.7679 26.8362 36.2275 23.4405 36.4876 19.4874C36.3221 19.4874 36.1913 19.4874 36.0604 19.4874C35.1604 19.4874 34.2603 19.4905 33.3603 19.4859C32.7707 19.4829 32.3436 19.1027 32.3388 18.5927C32.3341 18.0919 32.7692 17.6842 33.3461 17.6781C34.2461 17.6689 35.1462 17.6751 36.0463 17.6751C36.1802 17.6751 36.3142 17.6751 36.486 17.6751C36.226 13.7403 34.7584 10.3476 32.0819 7.38858C31.3552 8.09246 30.6569 8.78108 29.9444 9.45442C29.7963 9.59337 29.6166 9.72926 29.4258 9.79186C29.016 9.92775 28.5904 9.76285 28.3729 9.4361C28.1412 9.08798 28.1774 8.62534 28.5006 8.30012C29.1437 7.65731 29.8057 7.02977 30.4583 6.39459C30.5529 6.30298 30.6427 6.20679 30.7357 6.11212C27.9662 3.63555 24.0696 2.02471 20.1636 1.85065C20.1557 1.97738 20.1415 2.10563 20.1415 2.23389C20.1399 3.10573 20.1478 3.97757 20.1368 4.84941C20.1289 5.39908 19.8105 5.77468 19.336 5.83576C18.7354 5.91363 18.2767 5.50901 18.2657 4.85857C18.2499 3.99894 18.261 3.13932 18.261 2.2797C18.261 2.14839 18.261 2.01707 18.261 1.88729C15.3102 1.88729 10.9407 3.19123 7.66358 6.10754C7.75501 6.20221 7.8417 6.29993 7.93628 6.39001C8.56364 6.99923 9.19574 7.60234 9.81837 8.21461C10.2692 8.6574 10.2928 9.22234 9.8893 9.59642C9.50627 9.95218 8.92461 9.91096 8.48641 9.49107C7.78496 8.81772 7.08824 8.1398 6.38836 7.46645C6.3726 7.45118 6.3458 7.44507 6.32374 7.43591C3.8001 9.96898 2.02677 14.0808 1.9448 17.6766C2.21592 17.6766 2.48705 17.6766 2.75817 17.6766C3.52109 17.6766 4.28402 17.6705 5.04536 17.6796C5.62544 17.6857 6.06049 18.0843 6.06207 18.5851C6.06207 19.0935 5.6349 19.4844 5.04852 19.4874C4.0255 19.4935 3.00249 19.489 1.91485 19.489C2.16075 23.4283 3.62513 26.824 6.3127 29.7907C6.94479 29.1769 7.55167 28.5875 8.15854 27.9997C8.31774 27.8455 8.47064 27.6836 8.64403 27.5462C9.0255 27.2424 9.57405 27.2699 9.90822 27.5951C10.2392 27.9173 10.2881 28.4746 9.94763 28.8135C8.94826 29.8136 7.93155 30.8 6.90223 31.7695C6.5255 32.1253 5.96119 32.0581 5.55924 31.6657C3.97191 30.1098 2.69512 28.3448 1.75249 26.3553C0.464666 23.6436 -0.12329 20.7914 0.0201523 17.8171C0.239257 13.296 1.92273 9.34144 5.08792 6.00524C7.91579 3.02786 11.3868 1.08722 15.4962 0.357375C21.8281 -0.767923 27.446 0.76352 32.2175 4.96239C35.4835 7.83595 37.4192 11.4455 38.1506 15.6581C38.2578 16.2764 38.3177 16.9009 38.3981 17.5239V19.631H38.3997Z" fill="#D31313"/>
<path d="M21.3646 15.8076C22.6997 16.8993 22.9393 18.6307 22.4806 19.7698C21.6641 21.802 19.2713 22.5578 17.282 21.486C16.1865 20.8951 15.5024 19.2308 15.7483 17.9543C15.9958 16.6748 17.0865 15.5526 18.4012 15.2854C18.6313 15.238 18.8788 15.177 19.1042 15.2106C19.5251 15.2747 19.6575 15.0624 19.7883 14.7372C20.5875 12.7691 21.3961 10.804 22.2237 8.84659C22.3309 8.59313 22.5232 8.33814 22.7486 8.1763C23.0481 7.96101 23.4185 7.98849 23.7259 8.21752C24.0254 8.43892 24.1594 8.74429 24.0932 9.11074C24.0679 9.25121 24.008 9.38863 23.9529 9.52299C23.1332 11.5094 22.3119 13.4959 21.4923 15.4823C21.4466 15.5923 21.4056 15.7053 21.3646 15.8076ZM19.1531 20.1576C20.0878 20.1652 20.8255 19.4965 20.8034 18.5987C20.7766 17.5436 20.2785 17.0733 19.2602 17.0184C18.3176 16.968 17.5626 17.681 17.591 18.5926C17.6225 19.6232 18.1253 20.0919 19.1546 20.1591L19.1531 20.1576Z" fill="#D31313"/>
</svg>
