<svg width="33" height="32" viewBox="0 0 33 32" fill="none" xmlns="http://www.w3.org/2000/svg">
<rect x="0.5" width="32" height="32" rx="16" fill="#48C95F"/>
<path d="M22.8415 9.65C21.261 8.075 19.1537 7.2 16.9293 7.2C12.3049 7.2 8.55854 10.9333 8.55854 15.5417C8.55854 17 8.96829 18.4583 9.67073 19.6833L8.5 24L12.9488 22.8333C14.1781 23.475 15.5244 23.825 16.9293 23.825C21.5537 23.825 25.3 20.0917 25.3 15.4833C25.2415 13.325 24.4219 11.225 22.8415 9.65ZM20.9683 18.5167C20.7927 18.9833 19.9732 19.45 19.5634 19.5083C19.2122 19.5667 18.7439 19.5667 18.2756 19.45C17.9829 19.3333 17.5732 19.2167 17.1049 18.9833C14.9976 18.1083 13.6512 16.0083 13.5341 15.8333C13.4171 15.7167 12.6561 14.725 12.6561 13.675C12.6561 12.625 13.1829 12.1583 13.3585 11.925C13.5341 11.6917 13.7683 11.6917 13.9439 11.6917C14.061 11.6917 14.2366 11.6917 14.3537 11.6917C14.4707 11.6917 14.6463 11.6333 14.822 12.0417C14.9976 12.45 15.4073 13.5 15.4659 13.5583C15.5244 13.675 15.5244 13.7917 15.4659 13.9083C15.4073 14.025 15.3488 14.1417 15.2317 14.2583C15.1146 14.375 14.9976 14.55 14.939 14.6083C14.8219 14.725 14.7049 14.8417 14.822 15.0167C14.939 15.25 15.3488 15.8917 15.9927 16.475C16.8122 17.175 17.4561 17.4083 17.6902 17.525C17.9244 17.6417 18.0415 17.5833 18.1585 17.4667C18.2756 17.35 18.6854 16.8833 18.8024 16.65C18.9195 16.4167 19.0951 16.475 19.2707 16.5333C19.4463 16.5917 20.5 17.1167 20.6756 17.2333C20.9098 17.35 21.0268 17.4083 21.0854 17.4667C21.1439 17.6417 21.1439 18.05 20.9683 18.5167Z" fill="white"/>
</svg>
